<svg xmlns="http://www.w3.org/2000/svg" width="1280" height="72" viewBox="0 0 1280 72">
  <defs>
    <linearGradient id="steel" x1="0" x2="0" y1="0" y2="1">
      <stop offset="0" stop-color="#222322"/>
      <stop offset=".42" stop-color="#0d0e0e"/>
      <stop offset=".68" stop-color="#171513"/>
      <stop offset="1" stop-color="#020202"/>
    </linearGradient>
    <pattern id="hazard" width="42" height="72" patternUnits="userSpaceOnUse" patternTransform="skewX(-28)">
      <rect width="18" height="72" fill="#ff6a16" fill-opacity=".58"/>
      <rect x="18" width="24" height="72" fill="#050505" fill-opacity=".72"/>
    </pattern>
  </defs>
  <path d="M0 12h290l24 22h652l24-22h290v48H0z" fill="url(#steel)"/>
  <path d="M0 12h290l24 22h652l24-22h290" fill="none" stroke="#f47b24" stroke-opacity=".42"/>
  <path d="M0 60h1280" stroke="#000" stroke-opacity=".7"/>
  <path d="M0 14h1280M0 58h1280" stroke="#f7d2a6" stroke-opacity=".10"/>
  <rect x="20" y="20" width="210" height="30" fill="url(#hazard)" opacity=".42"/>
  <rect x="1050" y="20" width="210" height="30" fill="url(#hazard)" opacity=".42"/>
  <g fill="#070707" stroke="#c4763b" stroke-opacity=".52">
    <circle cx="42" cy="36" r="6"/>
    <circle cx="264" cy="36" r="5"/>
    <circle cx="392" cy="36" r="4"/>
    <circle cx="888" cy="36" r="4"/>
    <circle cx="1016" cy="36" r="5"/>
    <circle cx="1238" cy="36" r="6"/>
  </g>
  <g stroke="#ff3d0d" stroke-linecap="round" stroke-opacity=".36">
    <path d="M350 55h110M490 55h96M696 55h108M828 55h78"/>
  </g>
</svg>
