<svg xmlns="http://www.w3.org/2000/svg" width="320" height="320" viewBox="0 0 320 320">
  <defs>
    <filter id="grain" x="0" y="0" width="100%" height="100%">
      <feTurbulence type="fractalNoise" baseFrequency=".82" numOctaves="4" seed="28"/>
      <feColorMatrix type="matrix" values="0 0 0 0 .85 0 0 0 0 .78 0 0 0 0 .66 0 0 0 .18 0"/>
    </filter>
    <linearGradient id="rub" x1="0" x2="1" y1="0" y2="1">
      <stop offset="0" stop-color="#ffffff" stop-opacity=".14"/>
      <stop offset=".48" stop-color="#2c261f" stop-opacity=".05"/>
      <stop offset="1" stop-color="#000000" stop-opacity=".28"/>
    </linearGradient>
  </defs>
  <rect width="320" height="320" fill="transparent"/>
  <rect width="320" height="320" filter="url(#grain)" opacity=".72"/>
  <rect width="320" height="320" fill="url(#rub)" opacity=".52"/>
  <g stroke-linecap="round" fill="none">
    <path d="M18 39h78M133 24h62M221 51h70M42 112h112M188 119h92M28 205h86M162 224h130M75 283h91" stroke="#f1d6bd" stroke-opacity=".10"/>
    <path d="M13 78h126M174 86h70M38 164h60M128 153h164M19 252h92M145 270h147" stroke="#000" stroke-opacity=".22"/>
    <path d="M297 12l-34 15M51 17l-25 19M214 161l-46 21M116 304l-74 12M312 238l-54 20" stroke="#ff8128" stroke-opacity=".10"/>
  </g>
  <g fill="#f4e6cf" fill-opacity=".12">
    <circle cx="31" cy="28" r="1.1"/>
    <circle cx="91" cy="71" r=".8"/>
    <circle cx="170" cy="42" r="1"/>
    <circle cx="279" cy="96" r=".9"/>
    <circle cx="45" cy="186" r=".9"/>
    <circle cx="230" cy="198" r="1.2"/>
    <circle cx="302" cy="286" r=".8"/>
  </g>
</svg>
